<svg width="25" height="26" viewBox="0 0 25 26" fill="none" xmlns="http://www.w3.org/2000/svg">
<path fill-rule="evenodd" clip-rule="evenodd" d="M16 14.0002L10.7071 19.2931C10.3166 19.6836 9.68342 19.6836 9.2929 19.2931C8.90237 18.9025 8.90237 18.2694 9.29289 17.8788L13.8787 13.2931L9.29289 8.70727C8.90237 8.31675 8.90237 7.68359 9.29289 7.29306C9.68342 6.90254 10.3166 6.90254 10.7071 7.29306L16 12.586C16.3905 12.9765 16.3905 13.6096 16 14.0002Z" fill="white"/>
<path fill-rule="evenodd" clip-rule="evenodd" d="M12.5 3C6.97715 3 2.5 7.47715 2.5 13C2.5 18.5228 6.97715 23 12.5 23C18.0228 23 22.5 18.5228 22.5 13C22.5 7.47715 18.0228 3 12.5 3ZM0 13C0 6.09644 5.59644 0.5 12.5 0.5C19.4036 0.5 25 6.09644 25 13C25 19.9036 19.4036 25.5 12.5 25.5C5.59644 25.5 0 19.9036 0 13Z" fill="white"/>
</svg>
