<svg width="20" height="12" viewBox="0 0 20 12" fill="none" xmlns="http://www.w3.org/2000/svg">
<path d="M0.383335 2.37182C0.135168 2.1135 0 1.78474 0 1.39726C0 0.622312 0.586168 0 1.33034 0C1.70234 0 2.0405 0.164385 2.29984 0.434443L10.0113 8.65362L17.7001 0.434442C17.9594 0.164383 18.3089 0 18.6697 0C19.4138 0 20 0.622312 20 1.39726C20 1.78474 19.8647 2.1135 19.6167 2.37182L11.0485 11.5068C10.7553 11.8356 10.3946 11.9883 9.99999 12C9.60539 12 9.26717 11.8356 8.96277 11.5068L0.383335 2.37182Z" fill="white"/>
</svg>
