<svg width="24" height="14" viewBox="0 0 24 14" fill="none" xmlns="http://www.w3.org/2000/svg">
<path d="M23.54 3.51104C23.8378 3.23082 24 2.87418 24 2.45384C24 1.61319 23.2966 0.93811 22.4036 0.93811C21.9572 0.93811 21.5514 1.11643 21.2402 1.40939L11.9865 10.3255L2.75988 1.40939C2.44872 1.11643 2.02932 0.93811 1.5964 0.93811C0.703494 0.93811 2.00175e-06 1.61319 3.91038e-09 2.45384C4.99479e-09 2.87418 0.162346 3.23082 0.459973 3.51104L10.7419 13.4206C11.0936 13.7773 11.5265 13.9429 12 13.9556C12.4735 13.9556 12.8794 13.7773 13.2447 13.4206L23.54 3.51104Z" fill="#A1A4AD"/>
</svg>
