<svg width="18" height="18" viewBox="0 0 18 18" fill="none" xmlns="http://www.w3.org/2000/svg">
<g clip-path="url(#clip0_293_6150)">
<path d="M3.00045 13.5H7.50045V9H3.00045V13.5ZM4.50045 10.5H6.00045V12H4.50045V10.5ZM15.752 1.5H13.502V0H12.002V1.5H6.00195V0H4.50195V1.5H2.25195C1.01145 1.5 0.00195312 2.5095 0.00195312 3.75V18H18.002V3.75C18.002 2.5095 16.9925 1.5 15.752 1.5ZM2.25195 3H15.752C16.166 3 16.502 3.33675 16.502 3.75V6H1.50195V3.75C1.50195 3.33675 1.83795 3 2.25195 3ZM1.50195 16.5V7.5H16.502V16.5H1.50195Z" fill="#A1A4AD"/>
</g>
<defs>
<clipPath id="clip0_293_6150">
<rect width="18" height="18" fill="white"/>
</clipPath>
</defs>
</svg>
