<svg width="25" height="25" viewBox="0 0 25 25" fill="none" xmlns="http://www.w3.org/2000/svg">
<path fill-rule="evenodd" clip-rule="evenodd" d="M12.5 2.5C6.97715 2.5 2.5 6.97715 2.5 12.5C2.5 18.0228 6.97715 22.5 12.5 22.5C18.0228 22.5 22.5 18.0228 22.5 12.5C22.5 6.97715 18.0228 2.5 12.5 2.5ZM0 12.5C0 5.59644 5.59644 0 12.5 0C19.4036 0 25 5.59644 25 12.5C25 19.4036 19.4036 25 12.5 25C5.59644 25 0 19.4036 0 12.5ZM18.3447 7.82856C18.8536 8.29505 18.8879 9.08576 18.4214 9.59466L11.5464 17.0947C11.3027 17.3605 10.9561 17.5082 10.5955 17.4997C10.2349 17.4911 9.89562 17.3273 9.66472 17.0502L6.53972 13.3002C6.09777 12.7699 6.16942 11.9817 6.69977 11.5397C7.23012 11.0978 8.01832 11.1694 8.46028 11.6998L10.6698 14.3512L16.5786 7.90534C17.045 7.39645 17.8358 7.36207 18.3447 7.82856Z" fill="#87C23E"/>
</svg>
