<svg width="25" height="25" viewBox="0 0 25 25" fill="none" xmlns="http://www.w3.org/2000/svg">
<path d="M22.3326 0.457646C22.9428 -0.152549 23.9322 -0.152549 24.5424 0.457646C25.1525 1.06784 25.1525 2.05716 24.5424 2.66735L14.7097 12.5L24.5424 22.3326C25.1525 22.9428 25.1525 23.9322 24.5424 24.5424C23.9322 25.1525 22.9428 25.1525 22.3326 24.5424L12.5 14.7097L2.66735 24.5424C2.05716 25.1525 1.06784 25.1525 0.457646 24.5424C-0.152549 23.9322 -0.152549 22.9428 0.457646 22.3326L10.2903 12.5L0.457646 2.66735C-0.152548 2.05716 -0.152548 1.06784 0.457646 0.457646C1.06784 -0.152549 2.05716 -0.152549 2.66736 0.457646L12.5 10.2903L22.3326 0.457646Z" fill="#080808"/>
</svg>
