<svg width="16" height="28" viewBox="0 0 16 28" fill="none" xmlns="http://www.w3.org/2000/svg">
<path d="M12.8376 26.9337C13.182 27.2745 13.6203 27.46 14.137 27.46C15.1703 27.46 16 26.6552 16 25.6335C16 25.1227 15.7808 24.6584 15.4207 24.3024L4.46184 13.7146L15.4207 3.15776C15.7808 2.80174 16 2.32188 16 1.82655C16 0.804915 15.1703 2.28834e-06 14.137 0C13.6203 0 13.182 0.185752 12.8376 0.526287L0.657537 12.2905C0.219186 12.6929 0.0156623 13.1883 -3.70248e-07 13.73C-3.70248e-07 14.2718 0.219186 14.7362 0.657537 15.1541L12.8376 26.9337Z" fill="#58595B"/>
</svg>
