<svg width="17" height="28" viewBox="0 0 17 28" fill="none" xmlns="http://www.w3.org/2000/svg">
<path d="M3.8924 0.796256C3.54798 0.455522 3.10963 0.269937 2.59299 0.269937C1.55973 0.269937 0.72998 1.07475 0.72998 2.09649C0.72998 2.60725 0.94916 3.07155 1.30924 3.42762L12.2681 14.0154L1.30924 24.5722C0.949158 24.9282 0.72998 25.4081 0.72998 25.9034C0.72998 26.9251 1.55973 27.73 2.59299 27.73C3.10963 27.73 3.54798 27.5442 3.8924 27.2037L16.0724 15.4395C16.5108 15.037 16.7143 14.5417 16.73 13.9999C16.73 13.4582 16.5108 12.9938 16.0724 12.5758L3.8924 0.796256Z" fill="#58595B"/>
</svg>
