<svg width="25" height="25" viewBox="0 0 25 25" fill="none" xmlns="http://www.w3.org/2000/svg">
<path fill-rule="evenodd" clip-rule="evenodd" d="M16.7827 18.5073C15.0177 19.9004 12.7889 20.7317 10.3659 20.7317C4.64095 20.7317 0 16.0908 0 10.3659C0 4.64095 4.64095 0 10.3659 0C16.0908 0 20.7317 4.64095 20.7317 10.3659C20.7317 12.7889 19.9004 15.0177 18.5073 16.7827L24.6428 22.9182C25.1191 23.3944 25.1191 24.1666 24.6428 24.6428C24.1666 25.1191 23.3944 25.1191 22.9182 24.6428L16.7827 18.5073ZM18.2927 10.3659C18.2927 14.7437 14.7437 18.2927 10.3659 18.2927C5.98799 18.2927 2.43902 14.7437 2.43902 10.3659C2.43902 5.98799 5.98799 2.43902 10.3659 2.43902C14.7437 2.43902 18.2927 5.98799 18.2927 10.3659Z" fill="#080808"/>
</svg>
