<svg width="24" height="20" viewBox="0 0 24 20" fill="none" xmlns="http://www.w3.org/2000/svg">
<path fill-rule="evenodd" clip-rule="evenodd" d="M3.96335 0.322768C3.53299 -0.107589 2.83525 -0.107589 2.40489 0.322768C1.97453 0.753125 1.97453 1.45087 2.40489 1.88123L4.43607 3.91241C4.2442 4.06802 4.05903 4.22615 3.88057 4.38567C1.95885 6.10351 0.758229 8.03172 0.261775 8.91929C-0.087258 9.5433 -0.0872588 10.2927 0.261775 10.9167C0.758229 11.8043 1.95885 13.7325 3.88057 15.4503C5.80875 17.1739 8.52075 18.734 12 18.734C14.2189 18.734 16.1258 18.0994 17.7163 17.1926L20.0369 19.5132C20.4672 19.9436 21.165 19.9436 21.5953 19.5132C22.0257 19.0829 22.0257 18.3851 21.5953 17.9548L3.96335 0.322768ZM16.0876 15.5639L14.2393 13.7156C13.583 14.1034 12.8175 14.326 12 14.326C10.3681 14.326 8.94325 13.4392 8.18121 12.1211C7.85477 11.5565 8.59282 11.02 9.24501 11.02C9.8895 11.02 10.4823 10.7987 10.9516 10.4279L6.00436 5.4807C5.77734 5.65811 5.55904 5.84148 5.34943 6.02886C3.73248 7.47426 2.68718 9.11194 2.22887 9.91799C2.68718 10.724 3.73248 12.3617 5.34943 13.8071C7.0134 15.2946 9.22473 16.53 12 16.53C13.5338 16.53 14.8954 16.1526 16.0876 15.5639Z" fill="#A1A4AD"/>
<path d="M11.5725 5.72792L16.3669 10.5223C16.394 10.3248 16.408 10.123 16.408 9.91799C16.408 7.48352 14.4345 5.51 12 5.51C11.8075 5.51 11.6658 5.59526 11.5725 5.72792Z" fill="#A1A4AD"/>
<path d="M21.7711 9.91799C21.3635 10.6349 20.4916 12.0095 19.1663 13.3217L20.7247 14.8801C22.2956 13.3227 23.2961 11.7071 23.7382 10.9167C24.0873 10.2927 24.0873 9.5433 23.7382 8.91929C23.2418 8.03172 22.0411 6.10351 20.1194 4.38567C18.1912 2.66205 15.4792 1.102 12 1.102C10.4333 1.102 9.02213 1.41834 7.76808 1.9235L9.50023 3.65565C10.2757 3.4334 11.1088 3.306 12 3.306C14.7753 3.306 16.9866 4.54142 18.6506 6.02886C20.2675 7.47426 21.3128 9.11194 21.7711 9.91799Z" fill="#A1A4AD"/>
</svg>
