<svg width="24" height="24" viewBox="0 0 24 24" fill="none" xmlns="http://www.w3.org/2000/svg">
<path d="M8.06916 19.7359C8.24553 19.7258 8.41202 19.6512 8.53694 19.5262L16.5456 11.5176C16.7331 11.3301 16.7331 11.0262 16.5456 10.8388L13.1613 7.4545C12.9739 7.26704 12.67 7.26704 12.4825 7.4545L4.47386 15.4632C4.34894 15.5881 4.2743 15.7546 4.26417 15.9309L4.07836 19.1616C4.05367 19.5912 4.40889 19.9464 4.83852 19.9217L8.06916 19.7359Z" fill="#A1A4AD"/>
<path d="M13.6709 6.26653C13.4834 6.45399 13.4834 6.75791 13.6709 6.94535L17.0551 10.3296C17.2426 10.5171 17.5465 10.5171 17.734 10.3296L19.8033 8.26023C20.0845 7.97905 20.0845 7.52317 19.8033 7.24201L16.7585 4.19716C16.4773 3.91597 16.0214 3.91597 15.7403 4.19716L13.6709 6.26653Z" fill="#A1A4AD"/>
</svg>
