<svg width="321" height="80" viewBox="0 0 321 80" fill="none" xmlns="http://www.w3.org/2000/svg">
<path d="M80 61.5811C80 71.7504 71.6502 79.9989 61.6079 79.9989H18.3921C8.23695 80.1119 0 71.7504 0 61.5811V18.4178C0 8.24847 8.23695 0 18.3921 0H61.4951C71.6502 0 79.8872 8.24847 79.8872 18.4178V61.5811H80Z" fill="url(#paint0_linear_187_36)"/>
<path d="M61.6079 3.84174H18.3921C10.3809 3.84174 3.83643 10.3953 3.83643 18.4178V45.1971C3.83643 41.0163 7.22148 37.5136 11.5092 37.5136H68.6037C72.7786 37.5136 76.2765 40.9034 76.2765 45.1971V18.4178C76.1637 10.3953 69.6192 3.84174 61.6079 3.84174Z" fill="url(#paint1_linear_187_36)"/>
<path d="M26.0648 61.5811C26.0648 65.7618 22.6798 69.2646 18.392 69.2646C14.2171 69.2646 10.7193 65.8748 10.7193 61.5811C10.7193 57.4003 14.1043 53.8975 18.392 53.8975C22.5669 54.0105 26.0648 57.4003 26.0648 61.5811ZM26.0648 39.9994C26.0648 35.8187 22.6798 32.3159 18.392 32.3159C14.2171 32.3159 10.7193 35.7057 10.7193 39.9994C10.7193 44.1802 14.1043 47.6829 18.392 47.6829C22.5669 47.6829 26.0648 44.2932 26.0648 39.9994ZM69.1678 18.4178C69.1678 14.2371 65.7827 10.7343 61.495 10.7343C57.3201 10.7343 53.8222 14.1241 53.8222 18.4178C53.8222 22.5986 57.2073 26.1013 61.495 26.1013C65.7827 26.1013 69.1678 22.7115 69.1678 18.4178ZM56.1918 56.2704C53.258 59.2082 53.258 64.0669 56.1918 67.1177C59.1255 70.0555 63.9774 70.0555 67.0239 67.1177C69.9576 64.1799 69.9576 59.3212 67.0239 56.2704C64.0902 53.3326 64.0902 48.4739 67.0239 45.4231C69.9576 42.4853 69.9576 37.6266 67.0239 34.5758C64.0902 31.638 59.2383 31.638 56.1918 34.5758C53.258 37.5136 53.258 42.3723 56.1918 45.4231C59.1255 48.4739 59.1255 53.2196 56.1918 56.2704ZM45.3596 34.6888C42.4259 31.751 42.4259 26.8923 45.3596 23.8415C48.2933 20.9037 48.2933 16.045 45.3596 12.9942C42.4259 10.0564 37.574 10.0564 34.5274 12.9942C31.5937 15.932 26.7418 15.932 23.6953 12.9942C20.7616 10.0564 15.9097 10.0564 12.8631 12.9942C9.92941 15.932 9.92941 20.7907 12.8631 23.8415C15.7968 26.7793 20.6487 26.7793 23.6953 23.8415C26.629 20.9037 31.4809 20.9037 34.5274 23.8415C37.4612 26.7793 37.4612 31.638 34.5274 34.6888C31.5937 37.6266 31.5937 42.4853 34.5274 45.5361C37.4612 48.4739 37.4612 53.3326 34.5274 56.3834C31.5937 59.3212 31.5937 64.1799 34.5274 67.2307C37.4612 70.1685 42.3131 70.1685 45.3596 67.2307C48.2933 64.2929 48.2933 59.4342 45.3596 56.3834C42.4259 53.4456 42.4259 48.5869 45.3596 45.5361C48.2933 42.4853 48.4061 37.6266 45.3596 34.6888Z" fill="url(#paint2_linear_187_36)"/>
<path d="M102 31.5309H109.534V55.2163H117.325V31.5309H124.859V25.6966H102V31.5309ZM137.616 42.4157C137.359 42.8511 137.102 43.1994 136.931 43.6348C136.76 44.0702 136.503 44.4185 136.332 44.7669C136.161 45.2022 135.989 45.5506 135.732 45.8989H135.647C135.647 45.4635 135.647 45.0281 135.732 44.5927C135.732 44.1573 135.732 43.7219 135.732 43.2865C135.732 42.8511 135.732 42.3287 135.732 41.8062V25.6966H128.969V55.2163H136.332L147.291 37.9747C147.547 37.5393 147.804 37.191 147.975 36.7556C148.147 36.3202 148.404 35.9719 148.575 35.6236C148.746 35.1882 148.917 34.8399 149.174 34.4916H149.26C149.26 34.927 149.174 35.2753 149.174 35.7978C149.174 36.2331 149.088 36.6685 149.088 37.1039V55.3034H155.938V25.6966H148.232L137.616 42.4157ZM181.794 41.4579C180.681 40.3258 179.396 39.4551 177.855 38.8455L188.985 25.6966H180.167L170.15 38.6713H170.064V25.6966H162.444V55.2163H170.064V41.3708C171.605 41.3708 172.975 41.8062 174.088 42.764C175.201 43.7219 176.057 44.8539 176.742 46.1601L181.023 55.1292H189.499L184.533 45.2893C183.848 43.8961 182.907 42.5899 181.794 41.4579ZM213.642 27.4382C211.502 25.7837 208.505 25 204.653 25C202.427 25 200.286 25.2612 198.232 25.6966C196.177 26.132 194.55 26.6545 193.266 27.177L195.235 32.2275C195.749 32.0534 196.348 31.7921 197.033 31.618C197.718 31.4438 198.488 31.2697 199.259 31.0955C200.03 30.9213 200.8 30.8343 201.571 30.6601C202.341 30.573 203.112 30.486 203.797 30.486C205.595 30.486 206.964 30.8343 207.992 31.4438C209.019 32.0534 209.533 33.1854 209.533 34.6657V36.2331C207.221 36.3202 204.995 36.5815 202.855 36.9298C200.714 37.2781 198.745 37.8006 197.119 38.4972C195.492 39.2809 194.122 40.2388 193.095 41.4579C192.067 42.677 191.554 44.3315 191.554 46.3343C191.554 49.382 192.667 51.7331 194.978 53.3876C197.29 55.0421 200.715 55.9129 205.338 55.9129C207.649 55.9129 209.875 55.7388 211.93 55.3034C214.07 54.868 215.612 54.3455 216.81 53.823V35.5365C216.896 31.7921 215.783 29.0927 213.642 27.4382ZM209.533 49.9916C209.105 50.1657 208.505 50.3399 207.649 50.427C206.793 50.514 206.023 50.6011 205.166 50.6011C203.112 50.6011 201.571 50.2528 200.458 49.4691C199.345 48.6854 198.831 47.6404 198.831 46.2472C198.831 45.1152 199.088 44.2444 199.687 43.6348C200.286 42.9382 201.057 42.5028 201.999 42.0674C202.94 41.7191 204.053 41.4579 205.338 41.2837C206.622 41.1966 207.992 41.0225 209.447 41.0225V49.9916H209.533ZM247.717 25.6966L242.238 42.677C242.067 43.1124 241.981 43.5478 241.81 43.9831C241.724 44.4185 241.639 44.8539 241.553 45.2022C241.467 45.6376 241.382 46.073 241.296 46.5084H241.211C241.211 46.073 241.125 45.6376 240.954 45.2022C240.868 44.7669 240.782 44.4185 240.697 43.9831C240.611 43.5478 240.44 43.1124 240.269 42.677L234.618 25.6966H225.372L221.262 55.2163H228.539L230.68 36.6685C230.765 36.2331 230.765 35.7107 230.851 35.1882C230.851 34.6657 230.937 34.2303 230.937 33.7949C230.937 33.3595 231.022 32.8371 231.022 32.4017H231.108L231.365 33.7949C231.45 34.2303 231.536 34.6657 231.707 35.1882C231.878 35.7107 231.964 36.2331 232.221 36.6685L238.385 55.2163H244.378L250.543 36.6685C250.885 35.6236 251.056 34.6657 251.228 33.7949L251.484 32.4017H251.57C251.57 32.8371 251.57 33.2725 251.656 33.7949C251.741 34.2303 251.741 34.6657 251.741 35.1882C251.741 35.7107 251.827 36.2331 251.912 36.6685L253.967 55.2163H261.245L257.135 25.6966H247.717ZM274.857 42.4157C274.601 42.8511 274.344 43.1994 274.172 43.6348C274.001 44.0702 273.744 44.4185 273.573 44.7669C273.402 45.2022 273.231 45.5506 272.974 45.8989H272.888C272.888 45.4635 272.888 45.0281 272.974 44.5927C272.974 44.1573 272.974 43.7219 272.974 43.2865C272.974 42.8511 272.974 42.3287 272.974 41.8062V25.6966H266.125V55.2163H273.488L284.446 37.9747C284.703 37.5393 284.96 37.191 285.131 36.7556C285.302 36.3202 285.559 35.9719 285.731 35.6236C285.902 35.1882 286.073 34.8399 286.33 34.4916H286.415C286.415 34.927 286.33 35.2753 286.33 35.7978C286.33 36.2331 286.244 36.6685 286.244 37.1039V55.3034H293.008V25.6966H285.388L274.857 42.4157ZM313.299 49.5562C312.357 49.5562 311.501 49.382 310.73 49.0337C309.874 48.5983 309.189 48.0758 308.59 47.2921C307.991 46.5084 307.477 45.5506 307.134 44.4185C306.792 43.2865 306.621 41.8933 306.621 40.4129C306.621 37.3652 307.306 35.014 308.59 33.5337C309.874 31.9663 311.501 31.2697 313.384 31.2697C315.268 31.2697 316.723 31.7051 317.922 32.4888L320.319 27.0899C319.377 26.4803 318.179 25.9579 316.895 25.6095C315.61 25.2612 314.069 25.0871 312.186 25.0871C310.388 25.0871 308.675 25.4354 307.049 26.0449C305.422 26.6545 303.967 27.6124 302.682 28.8315C301.398 30.0506 300.371 31.7051 299.686 33.6208C298.915 35.5365 298.573 37.8876 298.573 40.5C298.573 43.1124 298.915 45.4635 299.686 47.3792C300.456 49.2949 301.484 50.9494 302.682 52.1685C303.967 53.4747 305.422 54.4326 307.049 55.0421C308.675 55.6517 310.388 56 312.186 56C313.984 56 315.525 55.8258 316.895 55.4775C318.179 55.1292 319.377 54.6067 320.319 53.9972L317.922 48.4242C316.638 49.1208 315.182 49.5562 313.299 49.5562Z" fill="#58595B"/>
<defs>
<linearGradient id="paint0_linear_187_36" x1="39.9842" y1="80.0721" x2="39.9842" y2="0" gradientUnits="userSpaceOnUse">
<stop stop-color="#BA131A"/>
<stop offset="0.2419" stop-color="#CE181F"/>
<stop offset="0.4996" stop-color="#DE1A22"/>
<stop offset="0.7542" stop-color="#E81C23"/>
<stop offset="1" stop-color="#ED1C24"/>
</linearGradient>
<linearGradient id="paint1_linear_187_36" x1="39.9776" y1="45.1678" x2="39.9776" y2="3.8179" gradientUnits="userSpaceOnUse">
<stop stop-color="#EE3129"/>
<stop offset="0.2067" stop-color="#EF372B"/>
<stop offset="0.4209" stop-color="#EF4532"/>
<stop offset="0.6385" stop-color="#F15A3F"/>
<stop offset="0.8572" stop-color="#F37254"/>
<stop offset="1" stop-color="#F58466"/>
</linearGradient>
<linearGradient id="paint2_linear_187_36" x1="39.981" y1="69.2781" x2="39.981" y2="10.9363" gradientUnits="userSpaceOnUse">
<stop stop-color="#D1D3D4"/>
<stop offset="0.1496" stop-color="#DDDEDF"/>
<stop offset="0.4388" stop-color="#EEEEEF"/>
<stop offset="0.7244" stop-color="#F9F9F9"/>
<stop offset="1" stop-color="white"/>
</linearGradient>
</defs>
</svg>
