<svg width="20" height="20" viewBox="0 0 20 20" fill="none" xmlns="http://www.w3.org/2000/svg">
<path d="M2 10C2 5.58172 5.58172 2 10 2C12.4233 2 14.645 3.20492 16.1342 5H14C13.4477 5 13 5.44772 13 6C13 6.55228 13.4477 7 14 7H18C18.5523 7 19 6.55228 19 6V2C19 1.44772 18.5523 1 18 1C17.4477 1 17 1.44772 17 2V2.98604C15.199 1.18684 12.7292 0 10 0C4.47715 0 0 4.47715 0 10C0 15.5228 4.47715 20 10 20C15.5228 20 20 15.5228 20 10C20 9.44771 19.5523 9 19 9C18.4477 9 18 9.44771 18 10C18 14.4183 14.4183 18 10 18C5.58172 18 2 14.4183 2 10Z" fill="#2C2D2F"/>
<path d="M10 5C10.5523 5 11 5.44772 11 6V9.58579L12.7071 11.2929C13.0976 11.6834 13.0976 12.3166 12.7071 12.7071C12.3166 13.0976 11.6834 13.0976 11.2929 12.7071L9.29289 10.7071C9.10536 10.5196 9 10.2652 9 10V6C9 5.44772 9.44771 5 10 5Z" fill="#2C2D2F"/>
</svg>
