<svg width="23" height="25" viewBox="0 0 23 25" fill="none" xmlns="http://www.w3.org/2000/svg">
<path fill-rule="evenodd" clip-rule="evenodd" d="M6.25 3.75H1.25C0.559644 3.75 0 4.30964 0 5C0 5.69036 0.559644 6.25 1.25 6.25H1.4056L3.47169 21.7456C3.72009 23.6086 5.30928 25 7.18879 25H15.3112C17.1907 25 18.7799 23.6086 19.0283 21.7456L21.0944 6.25H21.25C21.9404 6.25 22.5 5.69036 22.5 5C22.5 4.30964 21.9404 3.75 21.25 3.75H16.25C16.25 1.67893 14.5711 0 12.5 0H10C7.92893 0 6.25 1.67893 6.25 3.75ZM8.75 3.75C8.75 3.05964 9.30964 2.5 10 2.5H12.5C13.1904 2.5 13.75 3.05964 13.75 3.75H8.75ZM5.94976 21.4152L3.92773 6.25H18.5723L16.5502 21.4152C16.4674 22.0362 15.9377 22.5 15.3112 22.5H7.18879C6.56229 22.5 6.03256 22.0362 5.94976 21.4152Z" fill="#080808"/>
<rect x="8" y="10" width="2.3" height="9" fill="#080808"/>
<rect x="12" y="10" width="2.3" height="9" fill="#080808"/>
</svg>
