<svg width="20" height="20" viewBox="0 0 20 20" fill="none" xmlns="http://www.w3.org/2000/svg">
<path d="M11 15C11 14.4477 10.5523 14 10 14C9.44771 14 9 14.4477 9 15C9 15.5523 9.44771 16 10 16C10.5523 16 11 15.5523 11 15Z" fill="#E31E24"/>
<path d="M10 13C9.44773 13 9.00002 12.5522 9.00002 12V7.99996C9.00002 7.44768 9.44773 6.99996 10 6.99996C10.5523 6.99996 11 7.44767 11 7.99996V12C11 12.5522 10.5523 13 10 13Z" fill="#E31E24"/>
<path fill-rule="evenodd" clip-rule="evenodd" d="M12.6842 1.65886C11.5788 -0.552954 8.42255 -0.552956 7.31716 1.65886L0.320334 15.6591C-0.676531 17.6538 0.773968 20.0002 3.00387 20.0002H16.9975C19.2274 20.0002 20.6779 17.6538 19.6811 15.6591L12.6842 1.65886ZM9.10619 2.55295C9.47465 1.81568 10.5267 1.81568 10.8952 2.55295L17.892 16.5532C18.2243 17.2181 17.7408 18.0002 16.9975 18.0002H3.00387C2.26057 18.0002 1.77707 17.2181 2.10936 16.5532L9.10619 2.55295Z" fill="#E31E24"/>
</svg>
